<svg width="1798" height="445" viewBox="0 0 1798 445" fill="none" xmlns="http://www.w3.org/2000/svg">
<line x1="1707.31" y1="173" x2="1789.34" y2="255.024" stroke="#FFC7B6" stroke-width="16" stroke-linecap="round"/>
<line x1="1702" y1="252.686" x2="1784.02" y2="170.662" stroke="#FFC7B6" stroke-width="16" stroke-linecap="round"/>
<line x1="-58.4476" y1="287.778" x2="24.3739" y2="273.756" stroke="#FFC7B6" stroke-width="16" stroke-linecap="round"/>
<line x1="59.7392" y1="274.243" x2="187.586" y2="307.093" stroke="#FFC7B6" stroke-width="16" stroke-linecap="round"/>
<line x1="220.997" y1="324.342" x2="333.655" y2="393.133" stroke="#FFC7B6" stroke-width="16" stroke-linecap="round"/>
<line x1="362.501" y1="406.859" x2="491.559" y2="434.576" stroke="#FFC7B6" stroke-width="16" stroke-linecap="round"/>
<line x1="520.63" y1="434.834" x2="650.961" y2="413.905" stroke="#FFC7B6" stroke-width="16" stroke-linecap="round"/>
<line x1="681.183" y1="409.955" x2="802.417" y2="357.74" stroke="#FFC7B6" stroke-width="16" stroke-linecap="round"/>
<line x1="830.989" y1="343.407" x2="939.282" y2="267.931" stroke="#FFC7B6" stroke-width="16" stroke-linecap="round"/>
<line x1="966.988" y1="245.355" x2="1068.12" y2="160.524" stroke="#FFC7B6" stroke-width="16" stroke-linecap="round"/>
<line x1="1095.38" y1="134.417" x2="1191.83" y2="44.2938" stroke="#FFC7B6" stroke-width="16" stroke-linecap="round"/>
<line x1="1225.87" y1="26.0584" x2="1356.71" y2="8.57579" stroke="#FFC7B6" stroke-width="16" stroke-linecap="round"/>
<line x1="1392.23" y1="11.2106" x2="1516.51" y2="55.6855" stroke="#FFC7B6" stroke-width="16" stroke-linecap="round"/>
<path d="M1552.69 74.5864C1549 72.1581 1544.04 73.1817 1541.61 76.8728C1539.18 80.5639 1540.2 85.5247 1543.89 87.9531L1552.69 74.5864ZM1673.55 170.448C1677.88 169.555 1680.66 165.323 1679.77 160.996L1665.22 90.4819C1664.32 86.1548 1660.09 83.3708 1655.76 84.2637C1651.44 85.1566 1648.65 89.3883 1649.55 93.7154L1662.48 156.395L1599.8 169.329C1595.47 170.222 1592.69 174.453 1593.58 178.78C1594.48 183.107 1598.71 185.891 1603.03 184.999L1673.55 170.448ZM1543.89 87.9531L1667.53 169.296L1676.33 155.93L1552.69 74.5864L1543.89 87.9531Z" fill="#FFC7B6"/>
</svg>
