<svg width="46" height="46" viewBox="0 0 46 46" fill="none" xmlns="http://www.w3.org/2000/svg">
<g clip-path="url(#clip0_7_207)">
<path d="M31.9046 14.4969C28.8628 18.2845 27.5425 23.1076 24.6207 26.9959C23.7544 28.1096 22.7281 29.089 21.5431 29.5263C22.5387 27.7712 23.2271 25.8947 23.1332 23.9753C23.0667 21.9424 21.2471 20.2111 19.2827 19.7899C17.4319 19.3958 15.9485 21.0825 15.2615 22.5511C13.5581 25.9622 15.3473 30.7356 19.0902 31.1495C17.7332 33.0104 16.1362 34.6699 14.7729 36.4573C14.5107 36.8509 15.0307 37.2873 15.3664 36.8872C16.9634 35.2277 18.9026 33.2417 20.5281 31.0608C20.7089 31.008 20.9296 30.9886 21.1102 30.9357C27.6288 29.1792 29.1114 19.8567 32.8181 15.1954C33.2145 14.6418 32.3345 13.9033 31.9046 14.4969ZM17.7521 29.4132C15.7427 28.477 15.551 25.8619 15.9786 23.9711C16.4063 22.0802 17.984 20.2 20.0734 21.2034C22.51 22.3617 22.2667 25.0889 21.4105 27.1656C21.0128 28.1271 20.5686 28.9814 20.0108 29.8087C19.2415 29.913 18.5265 29.7902 17.7521 29.4132Z" fill="white"/>
<path d="M34.2271 11.8103C33.3972 12.0682 32.6007 12.2862 31.8044 12.5042C31.1151 12.6757 30.3858 12.8136 29.8294 13.233C29.3737 13.5323 29.6381 14.4359 30.2202 14.3108C30.9094 14.1393 31.5923 13.8942 32.2416 13.689C32.7103 13.5369 33.2188 13.4182 33.6537 13.3061C33.5452 13.7604 33.3967 14.1811 33.2881 14.6355C33.2067 14.9762 33.0918 15.3569 33.0104 15.6977C32.9833 15.8112 32.9961 15.9584 33.0425 16.0656C33.1018 16.3199 33.0891 16.1727 33.0825 16.0992C33.0683 16.3598 33.4684 16.6955 33.6633 16.3819C33.7705 16.3355 33.8376 16.2555 33.9383 16.1355C34.0932 15.7883 34.2418 15.3675 34.3567 14.9868C34.6202 14.1852 34.8836 13.3838 35.0337 12.5552C35.0622 12.0339 34.6221 11.6646 34.2271 11.8103Z" fill="white"/>
</g>
<defs>
<clipPath id="clip0_7_207">
<rect width="32" height="32" fill="white" transform="translate(0 24.5132) rotate(-50)"/>
</clipPath>
</defs>
</svg>
